<svg width="42" height="42" fill="none" xmlns="http://www.w3.org/2000/svg">
  <path
    d="M20.8 0C9.35 0 0 9.35 0 20.8c0 11.45 9.35 20.8 20.8 20.8 11.45 0 20.8-9.35 20.8-20.8C41.6 9.35 32.25 0 20.8 0zm9.65 36.25-.2-.1c0-.2-.15-.35-.3-.35s-.85-.25-1-.25c-.1 0-.15.05-.25.1-.05-.05-.35-.25-.35-.35 0-.25-.15-.5-.4-.5-.2 0-.7-.2-.95-.2-.2 0-2.15-1-2.35-1-.1 0-.2.05-.25.15a.376.376 0 0 0-.35-.25c-.05 0-.15-.1-.15-.2 0-.25-.15-.5-.4-.5-.15 0-.5-.3-.7-.3 0 0-.7-.55-.9-.55-.1 0-.3-.1-.5-.25-.15-2.8-.45-4.95-.55-6.05-.05-.55-.1-.85-.1-.85-.1-.55-.15-1.2-.2-1.95-.25-4.45 0-12.2.15-15.55 0-.5.05-.95.05-1.2v-.4c-.35.5-.4 1.2-.4 1.4-.55 3.05-.8 6.1-.95 8.8-.05 1-.1 1.9-.1 2.8-.05 3.75.15 5.8.15 5.8.15 2.3.3 4.55.55 7.35a.38.38 0 0 0-.2.1c-.35.15-.7.35-.75.5-.05.1-.15.25-.25.25-.15 0-.55.6-.6.6-.2 0-.8.5-.85.75 0 .1-.35.35-.5.35-.2 0-.6.5-.85.5-.15 0-.75.15-.95.15-.15 0-.3.1-.35.25-.15-.1-.35-.2-.55-.2-.4 0-.85.35-.95.35-.05 0-.15 0-.2.05-.05-.05-.1-.05-.2-.05h-.1c-.2 0-.8.7-.95.7-.1 0-.3.1-.45.15h-.15c-5.15-3.25-8.6-9-8.6-15.5 0-10.05 8.2-18.25 18.25-18.25s18.25 8.2 18.25 18.25c0 6.5-3.45 12.2-8.6 15.45z"
    fill="#fff"
  />
  <path
    d="M18.25 21.1c-.65-1.05-1.75-2.05-3.6-2.65-.2-.05-.35-.1-.55-.15 0 0-2.7-.65-3.8-.55h.05c.15.05.45.3 1.1.6 1.1.55 2.75 1.5 4.25 2.7 1.5 1.2 2.95 1.9 3.4 3.45 0-.55-.15-1.85-.3-2.25-.15-.35-.3-.75-.55-1.15zM23.3 11.7c1-.65 2.1-1.15 2.8-1.45.45-.15.75-.3.85-.3H27c-.7-.15-2.55.1-2.55.1-.15 0-.25.05-.35.05-1.2.25-1.95.8-2.4 1.45-.5.65-.7 2.25-.75 2.6.35-.95 1.3-1.8 2.35-2.45zM21.85 24.55c.2-.25.35-.5.55-.75.2-.25.4-.5.65-.75l.35-.35.4-.35c.2-.15.4-.35.6-.5.05-.05.15-.1.2-.15.1-.05.2-.15.3-.2.25-.2.5-.35.8-.5.05-.05.1-.05.15-.1.1-.05.2-.1.25-.15.05 0 .05-.05.1-.05.2-.1.45-.2.65-.3-1.7.1-3.05.85-3.05.85-.25.15-.5.3-.7.5-.9.65-1.4 1.35-1.7 2-.05.15-.15.35-.15.5-.05.15-.05.3-.1.4 0 .35.05.65.1.9.05-.1.05-.15.1-.25.2-.25.35-.5.5-.75z"
    fill="#fff"
  />
  <path
    d="M28 20.1c-.05 0-.15 0-.2.05-.05 0-.15.05-.25.05-.2.05-.35.15-.55.2-.25.1-.5.25-.75.35-.15.1-.25.15-.4.25-.15.1-.25.15-.4.25-.25.15-.5.4-.8.6-.25.25-.5.45-.75.7l-.35.35c-.1.15-.2.25-.35.4-.25.25-.4.5-.6.75-.2.25-.35.5-.5.75-.15.25-.25.5-.4.7-.1.25-.2.45-.25.65 0 .05-.05.05-.05.1s-.05.1-.05.15c.25-.05.9-.25 1.75-.7.65-.35 1.45-.85 2.2-1.6.75-.75 1.5-1.75 2.05-3 0 0 .45-.85 1.3-1h-.05c0-.05-.25-.05-.6 0zM18.1 9.85c-.15-.1-.3-.2-.5-.3 0 0-.9-.5-2.05-.55.15.05.3.1.45.2l.05.05c.05.05.1.05.2.1.05 0 .05.05.1.05.2.1.35.2.55.35.05.05.1.1.2.15.05.05.1.05.15.1.15.1.25.2.4.3l.25.25.25.25c.15.15.3.35.45.5.15.15.25.35.35.5.05.1.2.35.3.5l.1-.75c-.05-.1-.1-.3-.1-.35-.2-.4-.55-.9-1.15-1.35z"
    fill="#fff"
  />
  <path
    d="M19.15 12.85c-.05-.15-.1-.25-.2-.4-.1-.15-.15-.3-.25-.5-.1-.15-.2-.35-.35-.5-.15-.15-.25-.35-.4-.5-.05-.1-.15-.15-.2-.25l-.25-.25c-.15-.15-.35-.3-.5-.45-.2-.15-.35-.3-.55-.4-.1-.05-.15-.1-.25-.2-.1-.05-.15-.1-.25-.15-.15-.1-.35-.2-.5-.25-.15-.05-.25-.1-.4-.15-.05 0-.1-.05-.15-.05-.05 0-.1 0-.15-.05-.25-.05-.4-.05-.45 0h-.05c.55.1.9.7.9.7.4.85.9 1.5 1.4 2 .5.5 1 .85 1.45 1.1.55.3 1 .45 1.15.45 0 0 0-.05-.05-.1.1 0 .05-.05.05-.05z"
    fill="#fff"
  />
</svg>
